<svg width="43" height="37" viewBox="0 0 43 37" fill="none" xmlns="http://www.w3.org/2000/svg">
<path d="M31.3594 0.638672C27.4875 0.638672 24.0975 2.30367 21.9844 5.11805C19.8713 2.30367 16.4812 0.638672 12.6094 0.638672C9.5273 0.642146 6.57245 1.86803 4.3931 4.04739C2.21374 6.22675 0.987849 9.1816 0.984375 12.2637C0.984375 25.3887 20.445 36.0124 21.2738 36.4512C21.4922 36.5687 21.7363 36.6302 21.9844 36.6302C22.2324 36.6302 22.4766 36.5687 22.695 36.4512C23.5237 36.0124 42.9844 25.3887 42.9844 12.2637C42.9809 9.1816 41.755 6.22675 39.5757 4.04739C37.3963 1.86803 34.4415 0.642146 31.3594 0.638672ZM21.9844 33.4137C18.5606 31.4187 3.98438 22.3305 3.98438 12.2637C3.98735 9.97709 4.89701 7.78502 6.51387 6.16816C8.13072 4.55131 10.3228 3.64165 12.6094 3.63867C16.2563 3.63867 19.3181 5.58117 20.5969 8.70117C20.7099 8.97629 20.9021 9.2116 21.1492 9.3772C21.3962 9.5428 21.687 9.63122 21.9844 9.63122C22.2818 9.63122 22.5725 9.5428 22.8196 9.3772C23.0666 9.2116 23.2589 8.97629 23.3719 8.70117C24.6506 5.57555 27.7125 3.63867 31.3594 3.63867C33.646 3.64165 35.838 4.55131 37.4549 6.16816C39.0717 7.78502 39.9814 9.97709 39.9844 12.2637C39.9844 22.3155 25.4044 31.4168 21.9844 33.4137Z" fill="#032E15"/>
</svg>
